<?xml version="1.0" encoding="utf-8"?>
<!-- Svg Vector Icons : http://www.onlinewebfonts.com/icon -->
<!DOCTYPE svg PUBLIC "-//W3C//DTD SVG 1.1//EN" "http://www.w3.org/Graphics/SVG/1.1/DTD/svg11.dtd">
<svg version="1.1" xmlns="http://www.w3.org/2000/svg" xmlns:xlink="http://www.w3.org/1999/xlink" x="0px" y="0px" viewBox="0 0 1000 1000" enable-background="new 0 0 1000 1000" xml:space="preserve">
<metadata> Svg Vector Icons : http://www.onlinewebfonts.com/icon </metadata>
<g><path d="M868.9,112.3C822.7,80,770.1,65,717.7,65c-80.1,0-160.1,34.9-217.7,95.7C442.5,99.9,362.5,65,282.4,65c-52.5,0-104.9,14.9-151.3,47.3C2.6,202.3-28.6,379.4,61.4,507.8c0,0,35.4,45,58.9,70.6c19.3,21.1,288.8,279.8,361.5,348.3c0,0,8.6,8.3,18.2,8.3c10.3,0,18-8.3,18-8.3c72.7-68.6,342.3-327.3,361.6-348.3c23.5-25.6,58.9-70.6,58.9-70.6C1028.6,379.4,997.4,202.3,868.9,112.3L868.9,112.3z"/></g>
</svg>